<?xml version="1.0" encoding="utf-8"?>
<!-- Generator: Adobe Illustrator 28.2.0, SVG Export Plug-In . SVG Version: 6.00 Build 0)  -->
<svg version="1.1" id="Lager_1" xmlns="http://www.w3.org/2000/svg" xmlns:xlink="http://www.w3.org/1999/xlink" x="0px" y="0px"
	 viewBox="0 0 240.3 240.3" style="enable-background:new 0 0 240.3 240.3;" xml:space="preserve">
<style type="text/css">
	.st0{fill:#9923F1;stroke:#761EB8;stroke-miterlimit:10;}
	.st1{fill:#502480;stroke:#280C47;stroke-miterlimit:10;}
</style>
<path class="st0" d="M197.1,102.6l0,0.1c0,0,0.1,0,0.2-0.1L197.1,102.6L197.1,102.6z M84.3,109.4l-1.6,0.7c0.7,0.1,1.3,0.2,2,0.4
	l0.5,0.1C85.2,110.6,84.3,109.4,84.3,109.4z"/>
<path class="st0" d="M187,162.2L187,162.2C186.9,162.2,187,162.2,187,162.2L187,162.2L187,162.2z"/>
<g>
	<path class="st1" d="M137.6,197.1c0,0.1,0,0.1,0.1,0.2l0.1-0.1L137.6,197.1z"/>
	<path class="st1" d="M239,138.8c-1.7-7.7-5.6-14.3-11.6-19.8c-0.2-0.2-0.4-0.4-0.6-0.6c4.4-3.9,7.6-8.4,9.8-13.5
		c4.2-9.8,3.3-21.4-2.6-34.7c-4.3-9.7-9.8-16.7-16.5-20.9c-6.6-4.2-14.1-6.2-22.3-5.8c-0.3,0-0.6,0-0.9,0c0.3-5.9-0.6-11.4-2.6-16.5
		c-4-9.9-12.8-17.5-26.4-22.7c-9.9-3.8-18.8-4.8-26.4-3.1C131.2,3,124.5,6.9,119,12.9c-0.2,0.2-0.4,0.4-0.6,0.6
		c-3.9-4.4-8.4-7.6-13.5-9.8c-9.9-4.2-21.4-3.3-34.7,2.6c-9.7,4.3-16.7,9.8-20.9,16.5c-4.2,6.6-6.2,14.1-5.8,22.3c0,0.3,0,0.6,0,0.9
		c-5.9-0.3-11.4,0.5-16.5,2.6C17.2,52.6,9.6,61.4,4.4,75C0.6,85-0.4,93.8,1.3,101.5c1.7,7.7,5.6,14.3,11.6,19.8
		c0.2,0.2,0.4,0.4,0.6,0.6c-4.4,3.9-7.6,8.4-9.8,13.5c-4.2,9.8-3.3,21.4,2.6,34.7c4.3,9.7,9.8,16.7,16.5,20.9s14.1,6.2,22.3,5.8
		c0.3,0,0.6,0,0.9-0.1c-0.3,5.9,0.6,11.4,2.6,16.4c4,9.9,12.8,17.5,26.4,22.7c9.9,3.8,18.8,4.8,26.4,3.1c7.7-1.7,14.3-5.6,19.8-11.6
		c0.2-0.2,0.4-0.4,0.6-0.6c3.9,4.4,8.4,7.7,13.5,9.8c9.9,4.2,21.4,3.3,34.7-2.6c9.7-4.3,16.7-9.8,20.9-16.5
		c4.2-6.6,6.2-14.1,5.8-22.3c0-0.3,0-0.6-0.1-0.9c5.9,0.3,11.4-0.6,16.4-2.6c9.9-4,17.5-12.8,22.7-26.4
		C239.7,155.3,240.7,146.5,239,138.8L239,138.8z M72.9,36c1.3-3.3,3.9-5.9,8-7.7c4.3-1.9,8.2-1.8,11.7,0.3c3.4,2.2,6.4,6.1,9,11.9
		c0.4,0.9,0.7,1.7,1.1,2.6c0,0,0,0.1,0.1,0.2c1.6,4.2,2.5,8.3,2.8,12.4c0.2,2.6,0.2,5.2,0.1,7.8c0,1.1-0.1,2.3-0.2,3.4
		c-0.1,1.3-0.3,2.6-0.5,3.9c-0.2,1.4-0.4,2.8-0.6,4.2c-0.6,3.8-1.2,7.8-1.8,11.8l-0.1,0.4l-0.2,1.4l-0.3-0.4
		c-0.4-0.6-0.8-1.1-1.1-1.7c-1.8-2.6-3.6-5.2-5.4-7.6c-0.5-0.7-1-1.4-1.6-2.1c-1-1.4-2-2.7-3.1-4.1c-0.8-1-1.6-2.1-2.4-3
		c-3.1-3.7-6.4-7-10-10c-0.9-0.8-1.9-1.5-2.9-2.3c-1.4-3.5-2.5-6.9-3.1-10.2C71.4,43.1,71.6,39.4,72.9,36L72.9,36z M27.5,82.9
		c1.7-4.4,4.5-7.1,8.5-8c3.9-0.9,8.9-0.2,14.7,2c0.9,0.3,1.8,0.7,2.6,1.1c0,0,0.1,0,0.2,0.1c4.1,1.8,7.7,4.1,10.7,6.8
		c1.9,1.7,3.8,3.5,5.6,5.5c0.8,0.8,1.5,1.7,2.2,2.6c0.8,1,1.7,2,2.5,3.1c0.8,1.1,1.7,2.2,2.5,3.4c2.3,3.1,4.7,6.3,7.1,9.6l0.2,0.3
		l0.9,1.2l-0.5-0.1c-0.7-0.1-1.3-0.2-2-0.4c-3.1-0.6-6.2-1.1-9.2-1.6c-0.9-0.1-1.7-0.3-2.6-0.4c-1.7-0.3-3.4-0.5-5-0.7
		c-1.3-0.2-2.6-0.3-3.9-0.4c-4.7-0.4-9.5-0.4-14.2,0c-1.2,0.1-2.5,0.3-3.7,0.5c-3.5-1.5-6.7-3.2-9.4-5c-3.5-2.3-5.9-5.1-7.4-8.3
		C25.8,90.8,25.9,87.1,27.5,82.9L27.5,82.9z M69.7,152c-3.7,3-7,6.4-10,10c-0.8,0.9-1.5,1.9-2.3,2.9c-3.5,1.4-6.9,2.5-10.2,3.1
		c-4.1,0.8-7.8,0.6-11.1-0.7c-3.3-1.3-5.9-3.9-7.7-8c-1.9-4.4-1.8-8.2,0.3-11.6c2.1-3.4,6.1-6.4,11.9-9c0.9-0.4,1.7-0.8,2.6-1.1
		c0,0,0.1-0.1,0.2-0.1c4.2-1.6,8.3-2.5,12.4-2.8c2.6-0.2,5.2-0.2,7.8-0.1c1.1,0,2.3,0.1,3.4,0.2c1.3,0.1,2.6,0.3,3.9,0.5
		c1.4,0.2,2.8,0.4,4.2,0.6c3.8,0.6,7.8,1.2,11.8,1.8l0.4,0.1l1.4,0.2l-0.4,0.3c-0.6,0.4-1.1,0.8-1.7,1.1c-2.6,1.8-5.2,3.6-7.6,5.4
		c-0.7,0.5-1.4,1-2.1,1.6c-1.4,1-2.8,2-4.1,3.1C71.7,150.4,70.7,151.2,69.7,152L69.7,152z M110.5,155.7c-0.1,0.7-0.2,1.3-0.4,2
		c-0.6,3.1-1.1,6.2-1.6,9.2c-0.1,0.9-0.3,1.7-0.4,2.6c-0.3,1.7-0.5,3.4-0.7,5c-0.2,1.3-0.3,2.6-0.4,3.9c-0.4,4.7-0.4,9.5,0,14.1
		c0.1,1.2,0.3,2.4,0.5,3.7c-1.5,3.5-3.2,6.7-5,9.5c-2.3,3.5-5.1,5.9-8.3,7.4c-3.2,1.5-7,1.4-11.2-0.2c-4.4-1.7-7.1-4.5-8-8.4
		c-0.9-3.9-0.2-8.9,2-14.7c0.3-0.9,0.7-1.7,1.1-2.6c0-0.1,0-0.1,0.1-0.1c1.8-4.1,4.1-7.7,6.8-10.8c1.7-1.9,3.5-3.8,5.5-5.6
		c0.8-0.8,1.7-1.5,2.6-2.2c1-0.8,2-1.7,3.1-2.4c1.1-0.8,2.2-1.7,3.4-2.5c3.1-2.3,6.3-4.7,9.6-7.1l0.3-0.2l1.2-0.9L110.5,155.7
		L110.5,155.7z M170.7,88.3c3.6-3.1,7-6.4,10-10c0.8-0.9,1.6-1.9,2.3-2.9c3.5-1.4,6.9-2.5,10.2-3.1c4.1-0.8,7.8-0.6,11.1,0.7
		c3.3,1.3,5.9,3.9,7.7,8.1c1.9,4.3,1.8,8.2-0.3,11.6c-2.1,3.4-6.1,6.4-11.9,9c-0.9,0.4-1.7,0.7-2.6,1.1c-0.1,0-0.1,0-0.2,0.1
		c-4.2,1.6-8.3,2.5-12.4,2.8c-2.6,0.2-5.2,0.2-7.8,0.1c-1.1,0-2.3-0.1-3.4-0.2c-1.3-0.1-2.6-0.3-3.9-0.5c-1.4-0.2-2.8-0.4-4.2-0.6
		c-3.8-0.6-7.8-1.2-11.8-1.8l-0.4-0.1l-1.4-0.2l0.4-0.3c0.6-0.4,1.1-0.8,1.7-1.2c2.6-1.8,5.2-3.6,7.6-5.4c0.7-0.5,1.4-1,2.1-1.6
		c1.4-1,2.8-2,4.1-3.1C168.7,89.9,169.7,89.1,170.7,88.3L170.7,88.3z M130.9,84.3l-1.2,0.8l0.1-0.5c0.1-0.7,0.2-1.3,0.4-2
		c0.6-3.1,1.1-6.2,1.6-9.2c0.1-0.9,0.3-1.7,0.4-2.6c0.3-1.7,0.5-3.4,0.7-5.1c0.2-1.3,0.3-2.6,0.4-3.9c0.4-4.7,0.4-9.5,0-14.2
		c-0.1-1.2-0.3-2.4-0.5-3.7c1.5-3.5,3.2-6.7,5-9.5c2.3-3.5,5.1-5.9,8.3-7.4c3.2-1.5,7-1.4,11.2,0.2c4.4,1.7,7.1,4.5,8,8.5
		c0.9,3.9,0.2,8.9-2,14.7c-0.3,0.9-0.7,1.8-1.1,2.6c0,0,0,0.1-0.1,0.2c-1.8,4.1-4.1,7.7-6.8,10.7c-1.7,1.9-3.5,3.8-5.5,5.6
		c-0.8,0.8-1.7,1.5-2.6,2.2c-1,0.8-2,1.7-3.1,2.4c-1.1,0.8-2.2,1.7-3.4,2.5c-3.1,2.3-6.3,4.7-9.6,7.1L130.9,84.3L130.9,84.3z
		 M167.4,204.3c-1.3,3.3-3.9,5.9-8,7.7c-4.4,1.9-8.2,1.8-11.6-0.3c-3.4-2.1-6.4-6.1-9-11.9c-0.4-0.9-0.7-1.7-1.1-2.6
		c0-0.1,0-0.1-0.1-0.2c-1.6-4.2-2.5-8.3-2.8-12.4c-0.2-2.6-0.2-5.2-0.1-7.8c0-1.1,0.1-2.3,0.2-3.4c0.1-1.3,0.3-2.6,0.5-3.9
		c0.2-1.4,0.4-2.8,0.6-4.2c0.6-3.8,1.2-7.8,1.8-11.8l0.1-0.4l0.2-1.4l0.3,0.4c0.4,0.6,0.8,1.1,1.1,1.7c1.8,2.6,3.6,5.2,5.4,7.6
		c0.5,0.7,1,1.4,1.6,2.1c1,1.4,2,2.7,3.1,4.1c0.8,1,1.6,2.1,2.4,3c3.1,3.6,6.4,7,10,10c0.9,0.8,1.9,1.6,2.9,2.3
		c1.4,3.5,2.5,6.9,3.1,10.2C168.9,197.2,168.7,201,167.4,204.3L167.4,204.3z M212.8,157.4c-1.7,4.4-4.5,7.1-8.5,8
		c-3.9,0.9-8.9,0.2-14.7-2c-0.9-0.3-1.8-0.7-2.6-1.1c-0.1,0-0.1,0-0.1-0.1c-4.1-1.8-7.7-4.1-10.8-6.8c-1.9-1.7-3.8-3.5-5.6-5.4
		c-0.8-0.8-1.5-1.7-2.2-2.6c-0.8-1-1.7-2-2.4-3.1c-0.8-1.1-1.7-2.2-2.5-3.4c-2.3-3.1-4.7-6.3-7.1-9.6l-0.2-0.3l-0.9-1.2l0.5,0.1
		c0.7,0.1,1.3,0.2,2,0.4c3.1,0.6,6.2,1.1,9.2,1.6c0.9,0.1,1.7,0.3,2.6,0.4c1.7,0.3,3.4,0.5,5,0.7c1.3,0.2,2.6,0.3,3.9,0.4
		c4.7,0.4,9.5,0.4,14.2,0c1.2-0.1,2.4-0.3,3.7-0.5c3.5,1.5,6.7,3.2,9.5,5c3.5,2.3,5.9,5.1,7.4,8.3
		C214.5,149.5,214.4,153.2,212.8,157.4L212.8,157.4z"/>
</g>
<path class="st0" d="M155.7,129.8l-0.5-0.1l0.9,1.2l1.6-0.7C157,130.1,156.3,129.9,155.7,129.8z M78.1,186.9c0,0-0.1,0.1-0.1,0.1
	L78.1,186.9L78.1,186.9L78.1,186.9z"/>
<path class="st0" d="M138.4,152.1l-0.3-0.4l-0.2,1.4l1.6,0.6C139.2,153.2,138.8,152.6,138.4,152.1z M155.7,129.8l-0.5-0.1l0.9,1.2
	l1.6-0.7C157,130.1,156.3,129.9,155.7,129.8z M43.1,137.7l0.1,0l0-0.1C43.2,137.6,43.1,137.7,43.1,137.7z"/>
<path class="st0" d="M138.4,152.1l-0.3-0.4l-0.2,1.4l1.6,0.6C139.2,153.2,138.8,152.6,138.4,152.1z M109.4,156l0.7,1.6
	c0.1-0.7,0.2-1.3,0.4-2l0.1-0.5C110.6,155.2,109.4,156,109.4,156z M53.3,78l0,0.1l0.1,0C53.4,78.1,53.3,78.1,53.3,78z"/>
<path class="st0" d="M102.7,43.1l-0.1,0.1l0.1,0C102.7,43.2,102.7,43.1,102.7,43.1z M87.2,137.9l-0.6,1.7c0.6-0.4,1.1-0.8,1.7-1.1
	l0.4-0.3L87.2,137.9L87.2,137.9z M109.4,156l0.7,1.6c0.1-0.7,0.2-1.3,0.4-2l0.1-0.5C110.6,155.2,109.4,156,109.4,156z"/>
<path class="st0" d="M162.2,53.3L162.2,53.3c0,0.1,0.1,0,0.1-0.1C162.3,53.3,162.2,53.3,162.2,53.3z M87.2,137.9l-0.6,1.7
	c0.6-0.4,1.1-0.8,1.7-1.1l0.4-0.3L87.2,137.9L87.2,137.9z M84.3,109.4l-1.6,0.7c0.7,0.1,1.3,0.2,2,0.4l0.5,0.1
	C85.2,110.6,84.3,109.4,84.3,109.4z"/>
</svg>
